<?xml version="1.0" encoding="UTF-8"?>
<svg width="32px" height="32px" viewBox="0 0 32 32" version="1.1" xmlns="http://www.w3.org/2000/svg" xmlns:xlink="http://www.w3.org/1999/xlink">
    <!-- Generator: Sketch 52.6 (67491) - http://www.bohemiancoding.com/sketch -->
    <title>Group 5</title>
    <desc>Created with Sketch.</desc>
    <g id="Leads" stroke="none" stroke-width="1" fill="none" fill-rule="evenodd">
        <g id="Artboard" transform="translate(-90.000000, -415.000000)">
            <g id="Group-5" transform="translate(90.000000, 415.000000)">
                <circle id="Oval" fill="#FFFFFF" fill-rule="nonzero" cx="16" cy="16" r="16"></circle>
                <g id="002-download-business-statistics-symbol-of-a-graphic" transform="translate(7.000000, 8.000000)" fill="#000000">
                    <path d="M4.38091228,7.40631579 L1.44757895,10.4586667 L1.44757895,15.6092632 C1.44757895,15.7541053 1.56519298,15.872 1.71031579,15.872 L5.27185965,15.872 C5.41698246,15.872 5.53459649,15.754386 5.53459649,15.6092632 L5.53459649,7.70835088 L4.71326316,7.40631579 L4.38091228,7.40631579 Z" id="Path"></path>
                    <path d="M11.6350877,9.80014035 L8.07382456,9.80014035 C7.92842105,9.80014035 7.81080702,9.91775439 7.81080702,10.0628772 L7.81080702,15.6089825 C7.81080702,15.7541053 7.92842105,15.872 8.07382456,15.872 L11.6350877,15.872 C11.7802105,15.872 11.8978246,15.754386 11.8978246,15.6089825 L11.8978246,10.0625965 C11.8978246,9.91775439 11.7802105,9.80014035 11.6350877,9.80014035 Z" id="Path"></path>
                    <path d="M16.8117895,4.15017544 L16.1647719,3.60954386 L13.824,6.16308772 L13.824,15.6089825 C13.824,15.7538246 13.941614,15.8717193 14.0870175,15.8717193 L17.6485614,15.8717193 C17.7936842,15.8717193 17.9112982,15.7541053 17.9112982,15.6089825 L17.9112982,4.23719298 C17.8967018,4.24561404 17.8835088,4.256 17.8686316,4.26357895 C17.7324912,4.33487719 17.5795088,4.37249123 17.4256842,4.37249123 C17.2008421,4.37277193 16.9835789,4.29389474 16.8117895,4.15017544 Z" id="Path"></path>
                    <path d="M0.577403509,10.0651228 C0.71522807,10.0651228 0.853052632,10.0109474 0.956350877,9.9037193 L4.30877193,6.41515789 L10.1745965,8.57347368 C10.3750175,8.64673684 10.5990175,8.5925614 10.7435789,8.43536842 L16.1451228,2.54315789 L17.4088421,3.5997193 C17.4708772,3.65136842 17.5570526,3.66035088 17.6283509,3.62329825 C17.6993684,3.58596491 17.7414737,3.50989474 17.7341754,3.42933333 L17.4602105,0.366315789 C17.4506667,0.256842105 17.3538246,0.176280702 17.2446316,0.186105263 L14.1813333,0.459508772 C14.1013333,0.466526316 14.0334035,0.52154386 14.0092632,0.598175439 C14.0016842,0.623438596 13.9991579,0.64954386 14.0014035,0.675087719 C14.0061754,0.726736842 14.0305965,0.775578947 14.0718596,0.809824561 L15.338386,1.86835088 L10.2074386,7.46554386 L4.35031579,5.31031579 C4.15410526,5.23873684 3.93459649,5.28926316 3.78975439,5.43915789 L0.198736842,9.17557895 C-0.00224561404,9.38498246 0.00421052632,9.71733333 0.213614035,9.91831579 C0.31522807,10.0162807 0.446315789,10.0651228 0.577403509,10.0651228 Z" id="Path"></path>
                </g>
            </g>
        </g>
    </g>
</svg>