<svg width="13" height="13" viewBox="0 0 13 13" xmlns="http://www.w3.org/2000/svg"><title>Error Icon</title><g fill="none" fill-rule="evenodd"><circle fill="#FF1616" fill-rule="nonzero" cx="6.5" cy="6.5" r="6.5"/><path d="M7.07 3v2.885A12.736 12.736 0 0 1 7 7.215c-.015.152-.033.316-.053.491h-.61c-.02-.175-.038-.339-.053-.492a15.163 15.163 0 0 1-.06-.885 12.736 12.736 0 0 1-.008-.444V3h.852zM6 9.673a.641.641 0 0 1 .18-.448.617.617 0 0 1 .445-.187.647.647 0 0 1 .449.187.641.641 0 0 1 .182.449.636.636 0 0 1-.182.448.641.641 0 0 1-.449.182.641.641 0 0 1-.247-.048.585.585 0 0 1-.199-.134A.641.641 0 0 1 6 9.673z" fill="#FFF"/></g></svg>