<?xml version="1.0" encoding="UTF-8"?>
<svg width="32px" height="32px" viewBox="0 0 32 32" version="1.1" xmlns="http://www.w3.org/2000/svg" xmlns:xlink="http://www.w3.org/1999/xlink">
    <!-- Generator: Sketch 52.5 (67469) - http://www.bohemiancoding.com/sketch -->
    <title>Group 4</title>
    <desc>Created with Sketch.</desc>
    <g id="Leads" stroke="none" stroke-width="1" fill="none" fill-rule="evenodd">
        <g id="Artboard" transform="translate(-90.000000, -238.000000)" fill-rule="nonzero">
            <g id="Group-4" transform="translate(90.000000, 238.000000)">
                <circle id="Oval" fill="#FFFFFF" cx="16" cy="16" r="16"></circle>
                <g id="008-school-campus" transform="translate(6.600000, 6.000000)" fill="#000000">
                    <path d="M18.3398927,18.000595 L18.3398927,8.96302241 C18.3398927,8.49132123 17.956798,8.10892027 17.4841175,8.10892027 L13.4200874,8.10892027 L13.4200874,5.64996412 C13.4200874,5.41771354 13.2939759,5.20366301 13.0908545,5.09056273 L9.79100961,3.25410814 C9.77282188,3.24395811 9.75403291,3.23505809 9.73514372,3.22685807 L9.73514372,2.17885545 L11.5120796,2.17885545 C11.6538237,2.17885545 11.7688122,2.06410516 11.7688122,1.92260481 L11.7688122,0.628301571 C11.7688122,0.486801217 11.6538237,0.37205093 11.5120796,0.37205093 L9.73514372,0.37205093 L9.73514372,0.256250641 C9.73514372,0.114750287 9.62025541,0 9.47841118,0 C9.33656695,0 9.22167864,0.114750287 9.22167864,0.256250641 L9.22167864,3.22685807 C9.20278946,3.23510809 9.18400048,3.24400811 9.16576265,3.25410814 L5.86591774,5.09061273 C5.66259599,5.20366301 5.5365846,5.41776354 5.5365846,5.65001413 L5.5365846,8.10892027 L1.47245433,8.10892027 C0.999773843,8.10892027 0.616679185,8.49132123 0.616679185,8.96302241 L0.616679185,18.000545 C0.253074956,18.1647454 0,18.5296963 0,18.9537474 C0,19.5316488 0.469373627,20 1.04837466,20 L17.9081471,20 C18.4871481,20 18.9565217,19.5316488 18.9565217,18.9537474 C18.9564716,18.5296963 18.7034468,18.1647454 18.3398927,18.000595 Z M15.0318307,11.0858277 C15.0318307,10.811077 15.2550437,10.5883265 15.5305652,10.5883265 L16.4627489,10.5883265 C16.7380199,10.5883265 16.961283,10.811077 16.961283,11.0858277 L16.961283,12.01618 C16.961283,12.2909307 16.7380199,12.5136813 16.4627489,12.5136813 L15.5306153,12.5136813 C15.2550938,12.5136813 15.0318808,12.2909307 15.0318808,12.01618 L15.0318808,11.0858277 L15.0318307,11.0858277 Z M15.0318307,14.0750352 C15.0318307,13.8002845 15.2550437,13.5775339 15.5305652,13.5775339 L16.4627489,13.5775339 C16.7380199,13.5775339 16.961283,13.8002845 16.961283,14.0750352 L16.961283,15.0052875 C16.961283,15.2800382 16.7380199,15.5027888 16.4627489,15.5027888 L15.5306153,15.5027888 C15.2550938,15.5027888 15.0318808,15.2800382 15.0318808,15.0052875 L15.0318808,14.0750352 L15.0318307,14.0750352 Z M12.0365676,11.0858277 C12.0365676,10.811077 12.2596804,10.5883265 12.5350015,10.5883265 L13.4672854,10.5883265 C13.7424561,10.5883265 13.9657694,10.811077 13.9657694,11.0858277 L13.9657694,12.01618 C13.9657694,12.2909307 13.7424561,12.5136813 13.4672854,12.5136813 L12.5350015,12.5136813 C12.2596804,12.5136813 12.0365676,12.2909307 12.0365676,12.01618 L12.0365676,11.0858277 Z M12.0365676,14.0750352 C12.0365676,13.8002845 12.2596804,13.5775339 12.5350015,13.5775339 L13.4672854,13.5775339 C13.7424561,13.5775339 13.9657694,13.8002845 13.9657694,14.0750352 L13.9657694,15.0052875 C13.9657694,15.2800382 13.7424561,15.5027888 13.4672854,15.5027888 L12.5350015,15.5027888 C12.2596804,15.5027888 12.0365676,15.2800382 12.0365676,15.0052875 L12.0365676,14.0750352 Z M9.47826087,5.65196413 C10.2581787,5.65196413 10.8904402,6.28286571 10.8904402,7.06116765 C10.8904402,7.8394696 10.2582288,8.47032118 9.47826087,8.47032118 C8.69834308,8.47032118 8.06613167,7.8394196 8.06613167,7.06111765 C8.06613167,6.28281571 8.69834308,5.65196413 9.47826087,5.65196413 Z M8.06417762,13.7418344 C8.06417762,13.4670837 8.28734053,13.2443331 8.56286205,13.2443331 L10.3937098,13.2443331 C10.669081,13.2443331 10.8922439,13.4670837 10.8922439,13.7418344 L10.8922439,17.6613442 C10.8922439,17.7510444 10.8682441,17.8350946 10.8265076,17.9077948 L8.1302146,17.9077948 C8.08847803,17.8350946 8.06432793,17.7510444 8.06432793,17.6613442 L8.06417762,13.7418344 Z M4.99065217,11.0858277 C4.99065217,10.811077 5.21381508,10.5883265 5.48913618,10.5883265 L6.42136992,10.5883265 C6.69669103,10.5883265 6.91985394,10.811077 6.91985394,11.0858277 L6.91985394,12.01618 C6.91985394,12.2909307 6.69669103,12.5136813 6.42136992,12.5136813 L5.48913618,12.5136813 C5.21381508,12.5136813 4.99065217,12.2909307 4.99065217,12.01618 L4.99065217,11.0858277 Z M4.99065217,14.0750352 C4.99065217,13.8002845 5.21381508,13.5775339 5.48913618,13.5775339 L6.42136992,13.5775339 C6.69669103,13.5775339 6.91985394,13.8002845 6.91985394,14.0750352 L6.91985394,15.0052875 C6.91985394,15.2800382 6.69669103,15.5027888 6.42136992,15.5027888 L5.48913618,15.5027888 C5.21381508,15.5027888 4.99065217,15.2800382 4.99065217,15.0052875 L4.99065217,14.0750352 Z M1.99508844,11.0858277 C1.99508844,10.811077 2.21825135,10.5883265 2.49372276,10.5883265 L3.42585629,10.5883265 C3.7012776,10.5883265 3.92449062,10.811077 3.92449062,11.0858277 L3.92449062,12.01618 C3.92449062,12.2909307 3.7012776,12.5136813 3.42585629,12.5136813 L2.49377286,12.5136813 C2.21830145,12.5136813 1.99513854,12.2909307 1.99513854,12.01618 L1.99513854,11.0858277 L1.99508844,11.0858277 Z M1.99508844,14.0750352 C1.99508844,13.8002845 2.21825135,13.5775339 2.49372276,13.5775339 L3.42585629,13.5775339 C3.7012776,13.5775339 3.92449062,13.8002845 3.92449062,14.0750352 L3.92449062,15.0052875 C3.92449062,15.2800382 3.7012776,15.5027888 3.42585629,15.5027888 L2.49377286,15.5027888 C2.21830145,15.5027888 1.99513854,15.2800382 1.99513854,15.0052875 L1.99513854,14.0750352 L1.99508844,14.0750352 Z" id="Shape"></path>
                </g>
            </g>
        </g>
    </g>
</svg>